<svg width="111" height="115" viewBox="0 0 111 115" fill="none" xmlns="http://www.w3.org/2000/svg">
<path d="M23.0846 45.9828L19.3414 114.459H81.9553C79.7775 112.089 81.0479 70.6737 81.9553 50.2625C79.7775 38.9376 99.8774 21.8405 110.2 14.7075C105.572 14.7075 102.827 10.0985 102.033 7.79406C77.8038 29.3904 80.3673 13.2809 84.6777 2.52665C82.4998 3.8435 80.3673 1.97796 79.5733 0.880585C79.3011 4.56777 70.6122 3.51429 66.3019 2.52665C53.7791 42.559 48.8335 18.1094 47.926 0.880585C47.1093 3.77766 43.9559 3.18508 42.4813 2.52665C36.7644 7.79406 28.5293 6.91616 25.1264 5.81878C28.3932 27.4152 14.6907 20.7431 7.43116 14.7075C6.34222 18.1313 2.21333 21.621 0.285004 22.9379L23.0846 45.9828Z" fill="#BA7D60"/>
</svg>
